HIERARCHY
ROOT RootJoint
{
    OFFSET   0.000000   0.000000   0.000000
    CHANNELS 6 Xposition Yposition Zposition Xrotation Yrotation Zrotation
    JOINT pelvis_lowerback
    {
        OFFSET   0.000000   0.093605   0.000000
        CHANNELS 3 Xrotation Yrotation Zrotation
        JOINT lowerback_torso
        {
            OFFSET   0.000000   0.100000   0.000000
            CHANNELS 3 Xrotation Yrotation Zrotation
            JOINT torso_head
            {
                OFFSET   0.000000   0.282350   0.000000
                CHANNELS 3 Xrotation Yrotation Zrotation
                End Site
                {
                    OFFSET   0.000000   0.192650   0.000000
                }
            }
            JOINT rTorso_Clavicle
            {
                OFFSET  -0.001000   0.157500   0.000000
                CHANNELS 3 Xrotation Yrotation Zrotation
                JOINT rShoulder
                {
                    OFFSET  -0.117647   0.000000   0.000000
                    CHANNELS 3 Xrotation Yrotation Zrotation
                    JOINT rElbow
                    {
                        OFFSET  -0.245000   0.000000   0.000000
                        CHANNELS 3 Xrotation Yrotation Zrotation
                        JOINT rWrist
                        {
                            OFFSET  -0.240000   0.000000   0.000000
                            CHANNELS 3 Xrotation Yrotation Zrotation
                            End Site
                            {
                                OFFSET  -0.116353  -0.002500   0.000000
                            }
                        }
                    }
                }
            }
            JOINT lTorso_Clavicle
            {
                OFFSET   0.001000   0.157500   0.000000
                CHANNELS 3 Xrotation Yrotation Zrotation
                JOINT lShoulder
                {
                    OFFSET   0.117647   0.000000   0.000000
                    CHANNELS 3 Xrotation Yrotation Zrotation
                    JOINT lElbow
                    {
                        OFFSET   0.245000   0.000000   0.000000
                        CHANNELS 3 Xrotation Yrotation Zrotation
                        JOINT lWrist
                        {
                            OFFSET   0.240000   0.000000   0.000000
                            CHANNELS 3 Xrotation Yrotation Zrotation
                            End Site
                            {
                                OFFSET   0.116353  -0.002500   0.000000
                            }
                        }
                    }
                }
            }
        }
    }
    JOINT rHip
    {
        OFFSET  -0.100000  -0.051395   0.000000
        CHANNELS 3 Xrotation Yrotation Zrotation
        JOINT rKnee
        {
            OFFSET   0.000000  -0.410000   0.000000
            CHANNELS 3 Xrotation Yrotation Zrotation
            JOINT rAnkle
            {
                OFFSET   0.000000  -0.390000   0.000000
                CHANNELS 3 Xrotation Yrotation Zrotation
                JOINT rToeJoint
                {
                    OFFSET   0.000000  -0.050000   0.130000
                    CHANNELS 3 Xrotation Yrotation Zrotation
                    End Site
                    {
                        OFFSET  -0.010000   0.002000   0.060000
                    }
                }
            }
        }
    }
    JOINT lHip
    {
        OFFSET   0.100000  -0.051395   0.000000
        CHANNELS 3 Xrotation Yrotation Zrotation
        JOINT lKnee
        {
            OFFSET   0.000000  -0.410000   0.000000
            CHANNELS 3 Xrotation Yrotation Zrotation
            JOINT lAnkle
            {
                OFFSET   0.000000  -0.390000   0.000000
                CHANNELS 3 Xrotation Yrotation Zrotation
                JOINT lToeJoint
                {
                    OFFSET   0.000000  -0.050000   0.130000
                    CHANNELS 3 Xrotation Yrotation Zrotation
                    End Site
                    {
                        OFFSET   0.010000   0.002000   0.060000
                    }
                }
            }
        }
    }
}
MOTION
Frames: 7
Frame Time:   0.008333
 -2.323878   0.901312   4.129145  -2.926275   2.255288  -0.186844   9.006006  -2.490018  -1.747522   7.380660  -2.555772   1.136661  -0.046261  -0.242382   0.515800   1.798537   5.276050   8.863686  14.298771  18.386209  46.906422  -0.000059  17.048539  -0.000055  15.942278   3.361406   6.766153   1.360394  -5.813341  -6.720739  16.223685 -22.757478 -43.761579   0.000033 -16.048275  -0.000459   9.739030  -3.403252  -8.310192 -17.774728   0.282100  -5.648490  38.618624   0.000047   0.000377 -13.218052  -5.286961   2.244604  -1.858533  -0.000110  -0.000280  16.580361  -1.314889  -1.487829  -0.000019  -0.000000   0.000000 -12.931095  -0.093492   4.501554  -1.065015   0.000068  -0.000234
 -2.324505   0.900818   4.132716  -2.841307   2.221783  -0.171215   9.056257  -2.512787  -1.805701   7.394321  -2.573876   1.085507  -0.108005  -0.217085   0.525621   1.765159   5.230509   8.921602  14.276617  18.268634  47.025953  -0.000140  16.957118  -0.000161  15.912197   3.390769   6.698889   1.311913  -5.829604  -6.714785  16.200631 -22.786803 -43.719420  -0.000069 -15.919316  -0.000514   9.719963  -3.357027  -8.281771 -18.274082   0.345000  -5.685342  37.947793  -0.000054   0.000488 -13.248537  -5.341011   2.331088  -1.838861  -0.000117  -0.000231  16.747337  -1.142297  -1.482777  -0.000015  -0.000000   0.000000 -13.003644  -0.083658   4.440287  -1.382053   0.000062  -0.000569
 -2.325158   0.900264   4.136348  -2.751398   2.176866  -0.140677   9.104642  -2.533841  -1.878377   7.404668  -2.594926   1.026200  -0.168524  -0.192025   0.533877   1.739796   5.184860   8.988465  14.257979  18.158153  47.149173  -0.000212  16.869190  -0.000238  15.883098   3.401497   6.644860   1.263277  -5.850222  -6.718650  16.173969 -22.820056 -43.686683  -0.000164 -15.800913  -0.000556   9.705587  -3.313811  -8.260211 -18.768260   0.411318  -5.732188  37.220650  -0.000102   0.000648 -13.281383  -5.391126   2.411691  -1.822627  -0.000119  -0.000191  16.914364  -0.972231  -1.494358  -0.000012  -0.000000   0.000000 -13.082553  -0.069710   4.383876  -1.690146   0.000074  -0.000814
 -2.325841   0.899655   4.140061  -2.666591   2.128828  -0.102425   9.155570  -2.558894  -1.956586   7.418430  -2.620634   0.962803  -0.225143  -0.168566   0.540304   1.719826   5.140179   9.058086  14.242151  18.054827  47.270505  -0.000269  16.786479  -0.000292  15.855482   3.408809   6.606451   1.215370  -5.873597  -6.730490  16.145044 -22.855549 -43.661449  -0.000246 -15.692414  -0.000588   9.693471  -3.282850  -8.244803 -19.258167   0.477413  -5.780200  36.513633  -0.000101   0.000784 -13.313135  -5.437903   2.486865  -1.808397  -0.000116  -0.000158  17.092706  -0.814480  -1.510382  -0.000010  -0.000000   0.000000 -13.170682  -0.057231   4.328305  -1.987274   0.000090  -0.000958
 -2.326558   0.899001   4.143869  -2.587194   2.082213  -0.059513   9.207106  -2.588586  -2.036515   7.435874  -2.651083   0.897788  -0.277519  -0.146794   0.545552   1.704609   5.095925   9.127834  14.229328  17.957457  47.387693  -0.000309  16.708516  -0.000328  15.829203   3.414091   6.579363   1.168852  -5.898726  -6.749052  16.114819 -22.892333 -43.642605  -0.000312 -15.592766  -0.000608   9.682960  -3.263012  -8.234901 -19.739366   0.542075  -5.826030  35.842043  -0.000069   0.000867 -13.343201  -5.481549   2.557028  -1.796034  -0.000111  -0.000131  17.283082  -0.669426  -1.526638  -0.000008  -0.000000   0.000000 -13.264167  -0.047073   4.273807  -2.281126   0.000112  -0.001038
 -2.327308   0.898313   4.147780  -2.511163   2.039564  -0.013426   9.257045  -2.622319  -2.116304   7.455442  -2.685621   0.832574  -0.326050  -0.126616   0.550028   1.693749   5.051810   9.196113  14.219556  17.865222  47.499796  -0.000336  16.634865  -0.000349  15.804267   3.416697   6.560733   1.124078  -5.924814  -6.772772  16.083974 -22.929686 -43.629106  -0.000361 -15.501108  -0.000616   9.673681  -3.252383  -8.229833 -20.208354   0.604798  -5.868399  35.208455  -0.000021   0.000895 -13.371518  -5.522258   2.622527  -1.785398  -0.000105  -0.000108  17.483448  -0.536098  -1.541349  -0.000006  -0.000000   0.000000 -13.359021  -0.039216   4.221165  -2.578874   0.000142  -0.001078
 -2.328093   0.897597   4.151799  -2.436135   2.002380   0.034931   9.303730  -2.659184  -2.194858   7.475501  -2.723365   0.768065  -0.371221  -0.107911   0.553957   1.686701   5.007880   9.261900  14.212627  17.777649  47.606343  -0.000351  16.565233  -0.000358  15.780657   3.416273   6.548607   1.081185  -5.951281  -6.800100  16.053012 -22.967035 -43.619894  -0.000394 -15.416698  -0.000611   9.665361  -3.249295  -8.228684 -20.662611   0.665291  -5.906825  34.612471   0.000034   0.000872 -13.398139  -5.560216   2.683680  -1.776335  -0.000097  -0.000088  17.691296  -0.413443  -1.553523  -0.000005  -0.000000   0.000000 -13.452283  -0.033515   4.170995  -2.885715   0.000182  -0.001095
